ffmpeg started on 2025-05-29 at 15:55:28
Report written to "D:\Convert\FFMetrics\reports\psnr_report-6.txt"
Log level: 32
Command line:
ffmpeg -hide_banner -nostdin -i "G:\\\xc0\xed\xe8\xec\xe5\\\xce\xed\xe3\xee\xe8\xed\xe3\xe8\\!_36_\xce\xf1\xe5\xed\xfc_2024\\JamClub\\\xd0\xe0\xed\xec\xe0 1_2\\[JamClub] Ranma 1_2 - 07 [1080p]_HEVC.mkv" -i "G:\\\xc0\xed\xe8\xec\xe5\\\xce\xed\xe3\xee\xe8\xed\xe3\xe8\\!_36_\xce\xf1\xe5\xed\xfc_2024\\JamClub\\\xd0\xe0\xed\xec\xe0 1_2\\[JamClub] Ranma 1_2 - 07 [1080p].mp4" -lavfi "[0:v]settb=AVTB,setpts=PTS-STARTPTS,format=pix_fmts=yuv420p10,fps=24000/1001,scale=1920:1080:flags=bicubic[main];[1:v]settb=AVTB,setpts=PTS-STARTPTS,format=pix_fmts=yuv420p,fps=24000/1001,scale=1920:1080:flags=bicubic[ref];[main][ref]psnr=eof_action=endall:stats_file='D\\:/Convert/FFMetrics/logs/psnr_logfile-6.txt'" -f null -
Input #0, matroska,webm, from 'G:\Аниме\Онгоинги\!_36_Осень_2024\JamClub\Ранма 1_2\[JamClub] Ranma 1_2 - 07 [1080p]_HEVC.mkv':
  Metadata:
    COMPATIBLE_BRANDS: isomiso2avc1mp41
    MAJOR_BRAND     : isom
    MINOR_VERSION   : 512
    ENCODER         : Lavf61.7.100
  Duration: 00:24:50.37, start: -0.001000, bitrate: 1867 kb/s
  Stream #0:0: Video: hevc (Main 10), yuv420p10le(tv, bt709, progressive), 1920x1080 [SAR 1:1 DAR 16:9], 23.98 fps, 23.98 tbr, 1k tbn (default)
      Metadata:
        HANDLER_NAME    : VideoHandler
        VENDOR_ID       : [0][0][0][0]
        ENCODER         : Lavc61.19.100 libx265
        BPS             : 1680362
        DURATION        : 00:24:50.280708333
        NUMBER_OF_FRAMES: 35731
        NUMBER_OF_BYTES : 313026420
        _STATISTICS_WRITING_APP: mkvpropedit v66.0.0 ('Josie') 64-bit
        _STATISTICS_WRITING_DATE_UTC: 2025-05-29 07:54:43
        _STATISTICS_TAGS: BPS DURATION NUMBER_OF_FRAMES NUMBER_OF_BYTES
  Stream #0:1(eng): Audio: aac (LC), 48000 Hz, stereo, fltp (default)
      Metadata:
        HANDLER_NAME    : SoundHandler
        VENDOR_ID       : [0][0][0][0]
        ENCODER         : Lavc61.19.100 aac
        BPS             : 182703
        DURATION        : 00:24:50.328000000
        NUMBER_OF_FRAMES: 69860
        NUMBER_OF_BYTES : 34035976
        _STATISTICS_WRITING_APP: mkvpropedit v66.0.0 ('Josie') 64-bit
        _STATISTICS_WRITING_DATE_UTC: 2025-05-29 07:54:43
        _STATISTICS_TAGS: BPS DURATION NUMBER_OF_FRAMES NUMBER_OF_BYTES
Input #1, mov,mp4,m4a,3gp,3g2,mj2, from 'G:\Аниме\Онгоинги\!_36_Осень_2024\JamClub\Ранма 1_2\[JamClub] Ranma 1_2 - 07 [1080p].mp4':
  Metadata:
    major_brand     : isom
    minor_version   : 512
    compatible_brands: isomiso2avc1mp41
    encoder         : Lavf60.16.100
  Duration: 00:24:50.35, start: 0.000000, bitrate: 4211 kb/s
  Stream #1:0[0x1](und): Video: h264 (High) (avc1 / 0x31637661), yuv420p(progressive), 1920x1080 [SAR 1:1 DAR 16:9], 4013 kb/s, 23.98 fps, 23.98 tbr, 90k tbn (default)
      Metadata:
        handler_name    : VideoHandler
        vendor_id       : [0][0][0][0]
  Stream #1:1[0x2](eng): Audio: aac (LC) (mp4a / 0x6134706D), 48000 Hz, stereo, fltp, 191 kb/s (default)
      Metadata:
        handler_name    : SoundHandler
        vendor_id       : [0][0][0][0]
Stream mapping:
  Stream #0:0 (hevc) -> settb:default
  Stream #1:0 (h264) -> settb:default
  psnr:default -> Stream #0:0 (wrapped_avframe)
  Stream #0:1 -> #0:1 (aac (native) -> pcm_s16le (native))
Output #0, null, to 'pipe:':
  Metadata:
    COMPATIBLE_BRANDS: isomiso2avc1mp41
    MAJOR_BRAND     : isom
    MINOR_VERSION   : 512
    encoder         : Lavf61.7.100
  Stream #0:0: Video: wrapped_avframe, yuv420p10le(tv, bt709, progressive), 1920x1080 [SAR 1:1 DAR 16:9], q=2-31, 200 kb/s, 23.98 fps, 23.98 tbn
      Metadata:
        encoder         : Lavc61.19.100 wrapped_avframe
  Stream #0:1(eng): Audio: pcm_s16le, 48000 Hz, stereo, s16, 1536 kb/s (default)
      Metadata:
        HANDLER_NAME    : SoundHandler
        VENDOR_ID       : [0][0][0][0]
        _STATISTICS_TAGS: BPS DURATION NUMBER_OF_FRAMES NUMBER_OF_BYTES
        BPS             : 182703
        DURATION        : 00:24:50.328000000
        NUMBER_OF_FRAMES: 69860
        NUMBER_OF_BYTES : 34035976
        _STATISTICS_WRITING_APP: mkvpropedit v66.0.0 ('Josie') 64-bit
        _STATISTICS_WRITING_DATE_UTC: 2025-05-29 07:54:43
        encoder         : Lavc61.19.100 pcm_s16le
frame=  116 fps=0.0 q=-0.0 size=N/A time=00:00:04.83 bitrate=N/A speed=9.18x    frame=  279 fps=268 q=-0.0 size=N/A time=00:00:11.63 bitrate=N/A speed=11.2x    frame=  480 fps=308 q=-0.0 size=N/A time=00:00:20.02 bitrate=N/A speed=12.8x    frame=  728 fps=353 q=-0.0 size=N/A time=00:00:30.36 bitrate=N/A speed=14.7x    frame=  955 fps=369 q=-0.0 size=N/A time=00:00:39.83 bitrate=N/A speed=15.4x    frame= 1122 fps=363 q=-0.0 size=N/A time=00:00:46.79 bitrate=N/A speed=15.1x    frame= 1329 fps=367 q=-0.0 size=N/A time=00:00:55.43 bitrate=N/A speed=15.3x    frame= 1521 fps=368 q=-0.0 size=N/A time=00:01:03.43 bitrate=N/A speed=15.3x    frame= 1673 fps=360 q=-0.0 size=N/A time=00:01:09.77 bitrate=N/A speed=  15x    frame= 1870 fps=362 q=-0.0 size=N/A time=00:01:17.99 bitrate=N/A speed=15.1x    frame= 2051 fps=361 q=-0.0 size=N/A time=00:01:25.54 bitrate=N/A speed=15.1x    frame= 2220 fps=358 q=-0.0 size=N/A time=00:01:32.59 bitrate=N/A speed=14.9x    frame= 2386 fps=355 q=-0.0 size=N/A time=00:01:39.51 bitrate=N/A speed=14.8x    frame= 2559 fps=354 q=-0.0 size=N/A time=00:01:46.73 bitrate=N/A speed=14.8x    frame= 2708 fps=350 q=-0.0 size=N/A time=00:01:52.94 bitrate=N/A speed=14.6x    frame= 2891 fps=350 q=-0.0 size=N/A time=00:02:00.57 bitrate=N/A speed=14.6x    frame= 3002 fps=342 q=-0.0 size=N/A time=00:02:05.20 bitrate=N/A speed=14.3x    frame= 3171 fps=341 q=-0.0 size=N/A time=00:02:12.25 bitrate=N/A speed=14.2x    frame= 3328 fps=340 q=-0.0 size=N/A time=00:02:18.80 bitrate=N/A speed=14.2x    frame= 3536 fps=343 q=-0.0 size=N/A time=00:02:27.48 bitrate=N/A speed=14.3x    frame= 3763 fps=347 q=-0.0 size=N/A time=00:02:36.94 bitrate=N/A speed=14.5x    frame= 3897 fps=343 q=-0.0 size=N/A time=00:02:42.53 bitrate=N/A speed=14.3x    frame= 4098 fps=345 q=-0.0 size=N/A time=00:02:50.92 bitrate=N/A speed=14.4x    frame= 4338 fps=350 q=-0.0 size=N/A time=00:03:00.93 bitrate=N/A speed=14.6x    frame= 4521 fps=350 q=-0.0 size=N/A time=00:03:08.56 bitrate=N/A speed=14.6x    frame= 4739 fps=353 q=-0.0 size=N/A time=00:03:17.65 bitrate=N/A speed=14.7x    frame= 4945 fps=355 q=-0.0 size=N/A time=00:03:26.24 bitrate=N/A speed=14.8x    frame= 5196 fps=360 q=-0.0 size=N/A time=00:03:36.71 bitrate=N/A speed=  15x    frame= 5472 fps=366 q=-0.0 size=N/A time=00:03:48.22 bitrate=N/A speed=15.3x    frame= 5732 fps=370 q=-0.0 size=N/A time=00:03:59.07 bitrate=N/A speed=15.4x    frame= 6000 fps=375 q=-0.0 size=N/A time=00:04:10.25 bitrate=N/A speed=15.6x    frame= 6219 fps=377 q=-0.0 size=N/A time=00:04:19.38 bitrate=N/A speed=15.7x    frame= 6469 fps=380 q=-0.0 size=N/A time=00:04:29.81 bitrate=N/A speed=15.9x    frame= 6719 fps=383 q=-0.0 size=N/A time=00:04:40.23 bitrate=N/A speed=  16x    frame= 6932 fps=384 q=-0.0 size=N/A time=00:04:49.12 bitrate=N/A speed=  16x    frame= 7144 fps=385 q=-0.0 size=N/A time=00:04:57.96 bitrate=N/A speed=16.1x    frame= 7392 fps=387 q=-0.0 size=N/A time=00:05:08.30 bitrate=N/A speed=16.2x    frame= 7642 fps=390 q=-0.0 size=N/A time=00:05:18.73 bitrate=N/A speed=16.3x    frame= 7898 fps=393 q=-0.0 size=N/A time=00:05:29.41 bitrate=N/A speed=16.4x    frame= 8110 fps=393 q=-0.0 size=N/A time=00:05:38.25 bitrate=N/A speed=16.4x    frame= 8340 fps=394 q=-0.0 size=N/A time=00:05:47.84 bitrate=N/A speed=16.4x    frame= 8575 fps=396 q=-0.0 size=N/A time=00:05:57.64 bitrate=N/A speed=16.5x    frame= 8852 fps=399 q=-0.0 size=N/A time=00:06:09.20 bitrate=N/A speed=16.6x    frame= 9103 fps=401 q=-0.0 size=N/A time=00:06:19.67 bitrate=N/A speed=16.7x    frame= 9350 fps=403 q=-0.0 size=N/A time=00:06:29.97 bitrate=N/A speed=16.8x    frame= 9613 fps=405 q=-0.0 size=N/A time=00:06:40.94 bitrate=N/A speed=16.9x    frame= 9858 fps=407 q=-0.0 size=N/A time=00:06:51.16 bitrate=N/A speed=  17x    frame=10102 fps=408 q=-0.0 size=N/A time=00:07:01.33 bitrate=N/A speed=  17x    frame=10325 fps=409 q=-0.0 size=N/A time=00:07:10.63 bitrate=N/A speed=  17x    frame=10506 fps=407 q=-0.0 size=N/A time=00:07:18.18 bitrate=N/A speed=  17x    frame=10758 fps=409 q=-0.0 size=N/A time=00:07:28.69 bitrate=N/A speed=17.1x    frame=10999 fps=410 q=-0.0 size=N/A time=00:07:38.74 bitrate=N/A speed=17.1x    frame=11231 fps=411 q=-0.0 size=N/A time=00:07:48.42 bitrate=N/A speed=17.1x    frame=11464 fps=411 q=-0.0 size=N/A time=00:07:58.14 bitrate=N/A speed=17.2x    frame=11724 fps=413 q=-0.0 size=N/A time=00:08:08.98 bitrate=N/A speed=17.2x    frame=11977 fps=414 q=-0.0 size=N/A time=00:08:19.54 bitrate=N/A speed=17.3x    frame=12215 fps=415 q=-0.0 size=N/A time=00:08:29.46 bitrate=N/A speed=17.3x    frame=12419 fps=415 q=-0.0 size=N/A time=00:08:37.97 bitrate=N/A speed=17.3x    frame=12665 fps=416 q=-0.0 size=N/A time=00:08:48.23 bitrate=N/A speed=17.3x    frame=12858 fps=415 q=-0.0 size=N/A time=00:08:56.28 bitrate=N/A speed=17.3x    frame=13081 fps=416 q=-0.0 size=N/A time=00:09:05.58 bitrate=N/A speed=17.3x    frame=13293 fps=416 q=-0.0 size=N/A time=00:09:14.42 bitrate=N/A speed=17.3x    frame=13536 fps=416 q=-0.0 size=N/A time=00:09:24.56 bitrate=N/A speed=17.4x    frame=13802 fps=418 q=-0.0 size=N/A time=00:09:35.65 bitrate=N/A speed=17.4x    frame=14027 fps=418 q=-0.0 size=N/A time=00:09:45.04 bitrate=N/A speed=17.4x    frame=14277 fps=419 q=-0.0 size=N/A time=00:09:55.46 bitrate=N/A speed=17.5x    frame=14496 fps=419 q=-0.0 size=N/A time=00:10:04.60 bitrate=N/A speed=17.5x    frame=14720 fps=420 q=-0.0 size=N/A time=00:10:13.94 bitrate=N/A speed=17.5x    frame=14957 fps=420 q=-0.0 size=N/A time=00:10:23.83 bitrate=N/A speed=17.5x    frame=15182 fps=420 q=-0.0 size=N/A time=00:10:33.21 bitrate=N/A speed=17.5x    frame=15464 fps=422 q=-0.0 size=N/A time=00:10:44.97 bitrate=N/A speed=17.6x    frame=15712 fps=423 q=-0.0 size=N/A time=00:10:55.32 bitrate=N/A speed=17.6x    frame=15967 fps=424 q=-0.0 size=N/A time=00:11:05.95 bitrate=N/A speed=17.7x    frame=16213 fps=425 q=-0.0 size=N/A time=00:11:16.21 bitrate=N/A speed=17.7x    frame=16460 fps=425 q=-0.0 size=N/A time=00:11:26.51 bitrate=N/A speed=17.7x    frame=16711 fps=426 q=-0.0 size=N/A time=00:11:36.98 bitrate=N/A speed=17.8x    frame=16944 fps=427 q=-0.0 size=N/A time=00:11:46.70 bitrate=N/A speed=17.8x    frame=17171 fps=427 q=-0.0 size=N/A time=00:11:56.17 bitrate=N/A speed=17.8x    frame=17415 fps=427 q=-0.0 size=N/A time=00:12:06.35 bitrate=N/A speed=17.8x    frame=17642 fps=427 q=-0.0 size=N/A time=00:12:15.81 bitrate=N/A speed=17.8x    frame=17879 fps=428 q=-0.0 size=N/A time=00:12:25.70 bitrate=N/A speed=17.8x    frame=18108 fps=428 q=-0.0 size=N/A time=00:12:35.25 bitrate=N/A speed=17.9x    frame=18365 fps=429 q=-0.0 size=N/A time=00:12:45.97 bitrate=N/A speed=17.9x    frame=18593 fps=429 q=-0.0 size=N/A time=00:12:55.48 bitrate=N/A speed=17.9x    frame=18842 fps=430 q=-0.0 size=N/A time=00:13:05.86 bitrate=N/A speed=17.9x    frame=19087 fps=430 q=-0.0 size=N/A time=00:13:16.08 bitrate=N/A speed=17.9x    frame=19331 fps=431 q=-0.0 size=N/A time=00:13:26.26 bitrate=N/A speed=  18x    frame=19554 fps=431 q=-0.0 size=N/A time=00:13:35.56 bitrate=N/A speed=  18x    frame=19779 fps=431 q=-0.0 size=N/A time=00:13:44.94 bitrate=N/A speed=  18x    frame=20011 fps=431 q=-0.0 size=N/A time=00:13:54.62 bitrate=N/A speed=  18x    frame=20149 fps=429 q=-0.0 size=N/A time=00:14:00.38 bitrate=N/A speed=17.9x    frame=20344 fps=429 q=-0.0 size=N/A time=00:14:08.51 bitrate=N/A speed=17.9x    frame=20559 fps=428 q=-0.0 size=N/A time=00:14:17.48 bitrate=N/A speed=17.9x    frame=20762 fps=428 q=-0.0 size=N/A time=00:14:25.94 bitrate=N/A speed=17.9x    frame=20939 fps=427 q=-0.0 size=N/A time=00:14:33.33 bitrate=N/A speed=17.8x    frame=21148 fps=427 q=-0.0 size=N/A time=00:14:42.04 bitrate=N/A speed=17.8x    frame=21369 fps=427 q=-0.0 size=N/A time=00:14:51.26 bitrate=N/A speed=17.8x    frame=21525 fps=426 q=-0.0 size=N/A time=00:14:57.77 bitrate=N/A speed=17.8x    frame=21786 fps=427 q=-0.0 size=N/A time=00:15:08.65 bitrate=N/A speed=17.8x    frame=22013 fps=427 q=-0.0 size=N/A time=00:15:18.12 bitrate=N/A speed=17.8x    frame=22225 fps=427 q=-0.0 size=N/A time=00:15:26.96 bitrate=N/A speed=17.8x    frame=22469 fps=427 q=-0.0 size=N/A time=00:15:37.14 bitrate=N/A speed=17.8x    frame=22621 fps=426 q=-0.0 size=N/A time=00:15:43.48 bitrate=N/A speed=17.8x    frame=22791 fps=425 q=-0.0 size=N/A time=00:15:50.57 bitrate=N/A speed=17.7x    frame=22961 fps=424 q=-0.0 size=N/A time=00:15:57.66 bitrate=N/A speed=17.7x    frame=23193 fps=424 q=-0.0 size=N/A time=00:16:07.34 bitrate=N/A speed=17.7x    frame=23415 fps=424 q=-0.0 size=N/A time=00:16:16.60 bitrate=N/A speed=17.7x    frame=23671 fps=425 q=-0.0 size=N/A time=00:16:27.27 bitrate=N/A speed=17.7x    frame=23886 fps=425 q=-0.0 size=N/A time=00:16:36.24 bitrate=N/A speed=17.7x    frame=24128 fps=425 q=-0.0 size=N/A time=00:16:46.33 bitrate=N/A speed=17.7x    frame=24349 fps=425 q=-0.0 size=N/A time=00:16:55.55 bitrate=N/A speed=17.7x    frame=24566 fps=425 q=-0.0 size=N/A time=00:17:04.60 bitrate=N/A speed=17.7x    frame=24797 fps=425 q=-0.0 size=N/A time=00:17:14.24 bitrate=N/A speed=17.7x    frame=24944 fps=424 q=-0.0 size=N/A time=00:17:20.37 bitrate=N/A speed=17.7x    frame=25143 fps=424 q=-0.0 size=N/A time=00:17:28.67 bitrate=N/A speed=17.7x    frame=25314 fps=423 q=-0.0 size=N/A time=00:17:35.80 bitrate=N/A speed=17.6x    frame=25515 fps=423 q=-0.0 size=N/A time=00:17:44.18 bitrate=N/A speed=17.6x    frame=25689 fps=422 q=-0.0 size=N/A time=00:17:51.44 bitrate=N/A speed=17.6x    frame=25899 fps=422 q=-0.0 size=N/A time=00:18:00.20 bitrate=N/A speed=17.6x    frame=26134 fps=422 q=-0.0 size=N/A time=00:18:10.00 bitrate=N/A speed=17.6x    frame=26351 fps=422 q=-0.0 size=N/A time=00:18:19.05 bitrate=N/A speed=17.6x    frame=26589 fps=423 q=-0.0 size=N/A time=00:18:28.98 bitrate=N/A speed=17.6x    frame=26852 fps=423 q=-0.0 size=N/A time=00:18:39.95 bitrate=N/A speed=17.7x    frame=27101 fps=424 q=-0.0 size=N/A time=00:18:50.33 bitrate=N/A speed=17.7x    frame=27355 fps=424 q=-0.0 size=N/A time=00:19:00.93 bitrate=N/A speed=17.7x    frame=27591 fps=425 q=-0.0 size=N/A time=00:19:10.77 bitrate=N/A speed=17.7x    frame=27807 fps=424 q=-0.0 size=N/A time=00:19:19.78 bitrate=N/A speed=17.7x    frame=27978 fps=424 q=-0.0 size=N/A time=00:19:26.91 bitrate=N/A speed=17.7x    frame=28219 fps=424 q=-0.0 size=N/A time=00:19:36.96 bitrate=N/A speed=17.7x    frame=28452 fps=424 q=-0.0 size=N/A time=00:19:46.68 bitrate=N/A speed=17.7x    frame=28650 fps=424 q=-0.0 size=N/A time=00:19:54.94 bitrate=N/A speed=17.7x    frame=28914 fps=425 q=-0.0 size=N/A time=00:20:05.95 bitrate=N/A speed=17.7x    frame=29148 fps=425 q=-0.0 size=N/A time=00:20:15.71 bitrate=N/A speed=17.7x    frame=29322 fps=424 q=-0.0 size=N/A time=00:20:22.97 bitrate=N/A speed=17.7x    frame=29555 fps=424 q=-0.0 size=N/A time=00:20:32.68 bitrate=N/A speed=17.7x    frame=29785 fps=425 q=-0.0 size=N/A time=00:20:42.28 bitrate=N/A speed=17.7x    frame=30002 fps=425 q=-0.0 size=N/A time=00:20:51.33 bitrate=N/A speed=17.7x    frame=30201 fps=424 q=-0.0 size=N/A time=00:20:59.63 bitrate=N/A speed=17.7x    frame=30482 fps=425 q=-0.0 size=N/A time=00:21:11.35 bitrate=N/A speed=17.7x    frame=30741 fps=426 q=-0.0 size=N/A time=00:21:22.15 bitrate=N/A speed=17.8x    frame=30953 fps=426 q=-0.0 size=N/A time=00:21:30.99 bitrate=N/A speed=17.7x    frame=31138 fps=425 q=-0.0 size=N/A time=00:21:38.71 bitrate=N/A speed=17.7x    frame=31369 fps=425 q=-0.0 size=N/A time=00:21:48.34 bitrate=N/A speed=17.7x    frame=31591 fps=425 q=-0.0 size=N/A time=00:21:57.60 bitrate=N/A speed=17.7x    frame=31783 fps=425 q=-0.0 size=N/A time=00:22:05.61 bitrate=N/A speed=17.7x    frame=31952 fps=424 q=-0.0 size=N/A time=00:22:12.66 bitrate=N/A speed=17.7x    frame=32114 fps=423 q=-0.0 size=N/A time=00:22:19.42 bitrate=N/A speed=17.7x    frame=32262 fps=423 q=-0.0 size=N/A time=00:22:25.59 bitrate=N/A speed=17.6x    frame=32441 fps=422 q=-0.0 size=N/A time=00:22:33.06 bitrate=N/A speed=17.6x    frame=32648 fps=422 q=-0.0 size=N/A time=00:22:41.69 bitrate=N/A speed=17.6x    frame=32819 fps=421 q=-0.0 size=N/A time=00:22:48.82 bitrate=N/A speed=17.6x    frame=33001 fps=421 q=-0.0 size=N/A time=00:22:56.41 bitrate=N/A speed=17.6x    frame=33201 fps=421 q=-0.0 size=N/A time=00:23:04.75 bitrate=N/A speed=17.5x    frame=33409 fps=421 q=-0.0 size=N/A time=00:23:13.43 bitrate=N/A speed=17.5x    frame=33642 fps=421 q=-0.0 size=N/A time=00:23:23.15 bitrate=N/A speed=17.5x    frame=33914 fps=421 q=-0.0 size=N/A time=00:23:34.49 bitrate=N/A speed=17.6x    frame=34199 fps=422 q=-0.0 size=N/A time=00:23:46.38 bitrate=N/A speed=17.6x    frame=34492 fps=423 q=-0.0 size=N/A time=00:23:58.60 bitrate=N/A speed=17.6x    frame=34778 fps=424 q=-0.0 size=N/A time=00:24:10.53 bitrate=N/A speed=17.7x    frame=35072 fps=425 q=-0.0 size=N/A time=00:24:22.79 bitrate=N/A speed=17.7x    frame=35359 fps=426 q=-0.0 size=N/A time=00:24:34.76 bitrate=N/A speed=17.8x    frame=35649 fps=427 q=-0.0 size=N/A time=00:24:46.86 bitrate=N/A speed=17.8x    [Parsed_psnr_10 @ 00000218081b7840] PSNR y:47.706560 u:50.023743 v:50.583405 average:48.410565 min:37.442649 max:inf
[out#0/null @ 00000218079aeec0] video:15353KiB audio:279440KiB subtitle:0KiB other streams:0KiB global headers:0KiB muxing overhead: unknown
frame=35731 fps=427 q=-0.0 Lsize=N/A time=00:24:50.28 bitrate=N/A speed=17.8x    
